Coordinates
version=1
nRows=27
nColumns=19
inDegrees=yes

Units are S.I. units (second, meters, Newtons, ...)
Angles are in degrees.

endheader
time	pelvis_tilt	pelvis_list	pelvis_rotation	pelvis_tx	pelvis_ty	pelvis_tz	hip_flexion_r	hip_adduction_r	hip_rotation_r	knee_angle_r	ankle_angle_r	subtalar_angle_r	hip_flexion_l	hip_adduction_l	hip_rotation_l	knee_angle_l	ankle_angle_l	subtalar_angle_l
      0.61700000	      4.83816404	      3.66768466	      2.78964265	      0.59066254	      1.01287389	     -0.01541384	     16.37025323	     -6.97801043	     -4.97135118	      1.37303103	      0.65682417	      1.61972830	    -20.47199950	      3.08565026	     -8.97800781	     -7.20780614	     14.71339858	     25.26153611
      0.63300000	      4.79129419	      3.45192153	      3.36721809	      0.59156777	      1.01133145	     -0.01278329	     16.92281231	     -6.60965570	     -4.55507580	     -1.02056224	     -0.44420344	      0.08763884	    -20.81162866	      2.17099530	     -8.53296149	     -8.75429977	     15.13518353	     25.70926322
      0.65000000	      4.64346518	      3.06801028	      3.91205209	      0.59294701	      1.00997937	     -0.00946319	     17.66179570	     -6.03437490	     -4.44691907	     -3.98513136	     -1.80019203	     -1.13690152	    -20.84199970	      1.00509118	     -8.45349204	    -10.68340513	     15.41273941	     26.73064507
      0.66700000	      4.49582220	      2.81626408	      4.33448083	      0.59481453	      1.00936846	     -0.00671813	     18.36419777	     -5.66539617	     -4.55025184	     -7.11364036	     -3.02930624	     -1.62908643	    -20.83644160	      0.15351613	     -7.72598308	    -12.63929395	     15.18641998	     26.74938893
      0.68300000	      4.53346339	      2.56972493	      4.48575465	      0.59639331	      1.00945779	     -0.00359796	     19.08652693	     -5.24430240	     -4.35831343	    -10.74729191	     -3.67878846	     -2.05531654	    -20.71818862	     -0.61637736	     -7.13115918	    -15.12093420	     14.56097363	     26.66848089
      0.70000000	      4.80447002	      2.10687772	      4.82119816	      0.59969865	      1.01063103	     -0.00091562	     19.20908660	     -4.66040648	     -4.36682713	    -14.10624180	     -3.74469907	     -2.41984582	    -20.59336420	     -1.68811976	     -6.39061622	    -18.08279890	     13.37249092	     26.46145925
      0.71700000	      5.11395738	      1.70109730	      5.09562932	      0.60274146	      1.01231400	      0.00175045	     18.78664789	     -4.13990564	     -4.53883541	    -16.52576603	     -3.58413324	     -2.43527704	    -19.95570079	     -2.70700337	     -5.78811244	    -21.90840590	     11.60753489	     26.22420974
      0.73300000	      5.31666867	      1.44564134	      5.24880894	      0.60509908	      1.01382707	      0.00505593	     18.41970109	     -3.78925416	     -4.96494972	    -18.81991614	     -2.90707711	     -1.81081872	    -18.38930214	     -3.56044809	     -5.26955943	    -27.03321299	      9.30750903	     25.58978212
      0.75000000	      5.54719203	      1.23350959	      5.35105390	      0.60798536	      1.01592441	      0.00814690	     17.51960602	     -3.54644661	     -5.86460758	    -20.29096597	     -1.85882980	     -0.46990948	    -16.52546913	     -4.28863450	     -4.82576925	    -32.40606305	      5.99600732	     24.21532704
      0.76700000	      5.61815822	      0.99015957	      5.42412337	      0.61017629	      1.01793306	      0.01106588	     16.60555734	     -3.18012082	     -6.40046945	    -21.33402946	     -0.66892037	      0.28340125	    -13.91094167	     -5.04639541	     -4.66517070	    -38.34318737	      2.01040941	     22.25389472
      0.78300000	      5.67668952	      0.71953873	      5.45734793	      0.61098887	      1.02011109	      0.01419061	     15.45153409	     -2.74088665	     -7.03953590	    -21.69243312	      0.46588409	      1.24185078	    -10.98128255	     -5.67060104	     -4.36474655	    -44.15498053	     -2.11193746	     19.13919740
      0.80000000	      5.71438915	      0.28061592	      5.30849497	      0.61162613	      1.02224980	      0.01743813	     14.27247508	     -1.95309358	     -7.08444239	    -21.83392856	      1.55033772	      1.44219539	     -7.92598636	     -6.44352776	     -4.43997793	    -49.66719072	     -5.63953037	     15.82591828
      0.81700000	      5.72425327	     -0.08602589	      5.32432776	      0.61189195	      1.02498898	      0.02054954	     12.76064867	     -1.25486827	     -7.32992901	    -21.24201918	      2.41699434	      1.74543406	     -4.95218049	     -6.98394392	     -4.15866593	    -54.38482278	     -7.80763242	     12.29270100
      0.83300000	      5.75266104	     -0.13473461	      5.30219368	      0.61159759	      1.02804220	      0.02323351	     11.23464652	     -0.89587328	     -7.41288910	    -20.64149763	      3.25999579	      2.01824258	     -2.10021914	     -7.05857769	     -3.90978308	    -58.43575304	     -8.44470245	      9.14560997
      0.85000000	      5.77762100	     -0.09956200	      5.11966120	      0.61111711	      1.03134190	      0.02588724	      9.53070637	     -0.59094197	     -7.34556517	    -19.61094482	      3.88074085	      2.26998406	      0.60156750	     -6.87782958	     -3.74652808	    -61.75166044	     -7.80914317	      6.51626045
      0.86700000	      5.89761002	      0.14522987	      4.88104596	      0.61061327	      1.03479615	      0.02834008	      7.76920101	     -0.54508869	     -7.26652684	    -18.70621361	      4.51814701	      2.66726508	      2.99875405	     -6.44844769	     -3.76837760	    -64.21435709	     -6.53619680	      4.72706043
      0.88300000	      5.87159222	      0.42704374	      4.72634636	      0.60957787	      1.03802270	      0.03067196	      5.95047274	     -0.53934492	     -7.26108175	    -17.28378961	      4.89887717	      2.96924486	      5.48994186	     -5.93612816	     -3.74683318	    -65.94298876	     -5.09734625	      3.85758273
      0.90000000	      6.11182803	      0.72187490	      4.41111788	      0.60883948	      1.04121721	      0.03301044	      3.86212856	     -0.52264207	     -7.04939286	    -15.89626617	      5.25382134	      3.20312178	      7.45871902	     -5.42142169	     -3.89092481	    -66.83429176	     -3.69489521	      3.85780256
      0.91700000	      6.22028980	      0.98067144	      4.21290353	      0.60759650	      1.04381829	      0.03502642	      1.92299932	     -0.52148067	     -6.98877775	    -14.44918714	      5.50713032	      3.49734770	      9.45433606	     -4.93208757	     -3.96093167	    -66.96991774	     -2.40936475	      4.61904448
      0.93300000	      6.31495015	      1.22938911	      3.94855466	      0.60667004	      1.04614701	      0.03686274	     -0.09367329	     -0.54420361	     -7.01476332	    -12.82358720	      5.65438712	      3.90648130	     11.21462351	     -4.35958396	     -3.98046678	    -66.24833537	     -1.35189689	      5.56779518
      0.95000000	      6.26589754	      1.60835415	      3.16114662	      0.60433791	      1.04740035	      0.03916902	     -1.42334420	     -0.77834159	     -6.33869379	    -12.01622722	      6.09765019	      4.11331382	     12.94510536	     -3.71381295	     -4.52413036	    -64.81384703	     -0.49481142	      6.49239984
      0.96700000	      6.19492119	      1.81144282	      2.78831054	      0.60223987	      1.04821650	      0.04057316	     -2.87793041	     -0.85953238	     -6.13936404	    -10.96268315	      6.38166231	      4.36213659	     14.57823186	     -3.17348538	     -4.69038326	    -62.72137325	      0.20072638	      7.11666571
      0.98300000	      6.38421424	      2.06229028	      2.34797448	      0.60151625	      1.04927233	      0.04193958	     -4.80278008	     -0.98858383	     -6.00206616	     -9.69574301	      6.59608168	      4.60538910	     15.49415185	     -2.60117000	     -4.96667717	    -59.73242393	      0.81203889	      7.23403316
      1.00000000	      6.43688783	      2.30746758	      2.10641127	      0.59888383	      1.04961881	      0.04288791	     -6.23737099	     -1.10483427	     -5.69469787	     -8.90604583	      6.88930276	      4.31962437	     16.51041487	     -1.96097472	     -5.07642947	    -56.14560327	      1.14434680	      6.68690512
      1.01700000	      6.43695000	      2.46420705	      1.80875980	      0.59687245	      1.04953504	      0.04372840	     -7.60697454	     -1.17462976	     -5.52835171	     -8.20690419	      7.29074120	      4.33795513	     17.22674154	     -1.43196753	     -5.28106083	    -51.84036214	      1.25685648	      5.48095183
      1.03300000	      6.35674046	      2.45058087	      1.62110176	      0.59474767	      1.04898751	      0.04458623	     -8.98493114	     -1.03335767	     -5.42841800	     -7.30955830	      7.55512260	      4.21263929	     17.80792791	     -1.16614935	     -5.56574298	    -46.97562136	      0.97616067	      3.94980272
      1.05000000	      6.39223536	      2.33332658	      1.49632655	      0.59256480	      1.04829427	      0.04490776	    -10.43243340	     -0.82219992	     -5.44610086	     -6.53698015	      7.85826766	      4.22659172	     17.99260627	     -0.95983756	     -5.81349912	    -41.51248712	      0.26415120	      1.96998768
